<?xml version="1.0" encoding="utf-8"?>
<svg version="1.1" id="Capa_1" xmlns="http://www.w3.org/2000/svg" xmlns:xlink="http://www.w3.org/1999/xlink" x="0px" y="0px"
	 viewBox="0 0 725.7 725.7" style="enable-background:new 0 0 725.7 725.7;" xml:space="preserve">
<style type="text/css">
	.st0{fill:#EC0B43;}
	.st1{fill:#FFFFFF;}
</style>
<circle class="st0" cx="362.8" cy="362.8" r="362.8"/>
<path class="st1" d="M362.8,106.8C250.2,106.8,158,199,158,311.6s92.2,204.8,204.8,204.8s204.8-92.2,204.8-204.8
	S475.5,106.8,362.8,106.8z M362.8,414c-56.3,0-102.4-46.1-102.4-102.4s46.1-102.4,102.4-102.4s102.4,46.1,102.4,102.4
	S419.2,414,362.8,414z M362.8,260.4c-5.1,0-10.2,0-12.8,2.6c12.8,23-15.4,48.6-35.8,35.8c-2.6,2.6-2.6,7.7-2.6,12.8
	c0,28.2,23,51.2,51.2,51.2s51.2-23,51.2-51.2C414,283.5,391,260.4,362.8,260.4z M501.1,529.2c-41,25.6-87,38.4-135.7,38.4
	c-51.2,0-97.3-12.8-135.7-38.4l-43.5,71.7c-5.1,7.7,0,17.9,10.2,17.9h332.8c10.2,0,15.4-10.2,15.4-17.9L501.1,529.2z"/>
</svg>
